PathFileType	4	(X/Y/Z)	C:\Users\Basilio\Documents\Thesis Gigler\squatting_fais\c3dfiles\041\SLS_pre_front1\markers_experimental.trc
DataRate	CameraRate	NumFrames	NumMarkers	Units	OrigDataRate	OrigDataStartFrame	OrigNumFrames
200.000000	200.000000	4	62	mm	200.000000	0	1517
Frame#	Time	FHD			LBHD			RBHD			C7			T10			CLAV			LSHO			LUUPA			LMUPA			LDUPA			LLEP			LMEP			LRAD			LUL			LRFIN			RSHO			RUPA1			RMUPA			RDUPA			RLEP			RMEP			RRAD			RUL			RUFIN			LASI			RASI			USACR			LSACR			RSACR			LTHI1			LTHI2			LTHI3			LTHI4			LLFC			LMFC			LTIB1			LTIB2			LTIB3			LTIB4			LLMAL			LMMAL			LHEE			LMT1			LMT2			LMT5			RTHI			RTHI2			RTHI3			RTHI4			RLFC			RMFC			RTIB1			RTIB2			RTIB3			RTIB4			RLMAL			RMMAL			RHEE			RMT1			RMT2			RMT5			*61			
		X1	Y1	Z1	X2	Y2	Z2	X3	Y3	Z3	X4	Y4	Z4	X5	Y5	Z5	X6	Y6	Z6	X7	Y7	Z7	X8	Y8	Z8	X9	Y9	Z9	X10	Y10	Z10	X11	Y11	Z11	X12	Y12	Z12	X13	Y13	Z13	X14	Y14	Z14	X15	Y15	Z15	X16	Y16	Z16	X17	Y17	Z17	X18	Y18	Z18	X19	Y19	Z19	X20	Y20	Z20	X21	Y21	Z21	X22	Y22	Z22	X23	Y23	Z23	X24	Y24	Z24	X25	Y25	Z25	X26	Y26	Z26	X27	Y27	Z27	X28	Y28	Z28	X29	Y29	Z29	X30	Y30	Z30	X31	Y31	Z31	X32	Y32	Z32	X33	Y33	Z33	X34	Y34	Z34	X35	Y35	Z35	X36	Y36	Z36	X37	Y37	Z37	X38	Y38	Z38	X39	Y39	Z39	X40	Y40	Z40	X41	Y41	Z41	X42	Y42	Z42	X43	Y43	Z43	X44	Y44	Z44	X45	Y45	Z45	X46	Y46	Z46	X47	Y47	Z47	X48	Y48	Z48	X49	Y49	Z49	X50	Y50	Z50	X51	Y51	Z51	X52	Y52	Z52	X53	Y53	Z53	X54	Y54	Z54	X55	Y55	Z55	X56	Y56	Z56	X57	Y57	Z57	X58	Y58	Z58	X59	Y59	Z59	X60	Y60	Z60	X61	Y61	Z61	X62	Y62	Z62	

1	0	-226.1212310791016	1775.075927734375	-930.4688720703127	-407.632049560547	1718.10888671875	-1002.713134765625	-382.9685974121094	1714.959594726563	-851.4370117187502	-454.9449768066407	1563.406494140625	-936.0718994140627	-465.4065551757814	1243.158081054688	-924.1484375000002	-296.8539428710938	1503.324340820313	-950.9107666015627	-399.418914794922	1551.53271484375	-1107.825561523438	-365.8171386718751	1392.131469726563	-1227.081787109375	-320.2113647460938	1376.084838867188	-1218.135864257813	-341.3884277343751	1335.370727539063	-1259.326171875	-314.8985900878907	1291.241455078125	-1274.188110351563	-326.2054443359376	1235.09765625	-1205.0107421875	-88.47689056396486	1300.289184570313	-1118.428588867188	-77.92068481445314	1237.2666015625	-1157.270629882813	-7.427132606506349	1306.6689453125	-1108.348876953125	-349.9512634277344	1550.881469726563	-774.7236938476565	-395.337127685547	1345.912841796875	-669.5845336914064	-346.5752868652344	1333.653076171875	-675.2474365234376	-369.0673522949219	1282.11572265625	-655.4570312500001	-362.5682983398438	1237.886840820313	-648.0478515625001	-395.0733032226564	1209.834838867188	-727.6769409179689	-231.4916687011719	1009.671325683594	-700.1868286132814	-284.0149230957032	994.2858886718752	-646.4722290039064	-186.7082824707032	946.2419433593752	-677.8272094726564	-299.2366333007813	1067.5009765625	-1058.086669921875	-278.4427185058594	1060.5263671875	-830.3963623046877	-467.8052062988282	1126.857055664063	-925.1782226562502	-483.685760498047	1099.712036132813	-950.3369750976565	-478.0385131835939	1099.220336914063	-896.3435668945315	-408.2742919921876	854.3067016601565	-1118.0546875	-367.3230590820313	779.9342041015627	-1119.448486328125	-319.3295593261719	786.6875610351565	-1114.438720703125	-390.3386840820314	725.2014160156251	-1108.761474609375	-358.0556945800782	546.3493652343751	-1103.580688476563	-344.3238220214844	523.2872924804689	-984.9776611328127	-320.2268981933594	352.7702331542969	-1054.999755859375	-369.7149047851563	310.9031677246094	-1118.341918945313	-330.5610961914063	307.7102050781251	-1093.52197265625	-329.5633544921876	228.4008026123047	-1063.607421875	-385.7282714843751	134.7445220947266	-1106.654052734375	-346.8959045410157	139.4255065917969	-1025.770629882813	-450.5086059570314	117.9568710327149	-1064.748901367188	-243.1949005126954	66.44193267822267	-1039.633666992188	-237.2110443115235	60.72504806518556	-1085.057373046875	-285.3822021484376	44.5132179260254	-1137.425415039063	-373.5115661621094	795.6922607421877	-747.1871337890626	-330.3362121582032	745.9343261718751	-741.8880615234376	-297.8470153808594	751.1754150390626	-745.5039062500001	-349.0264587402344	663.9371337890626	-752.0377197265626	-337.0318603515626	539.3102416992189	-745.0681762695314	-316.7066955566407	514.5957031250001	-861.1511230468752	-308.4867858886719	370.0121459960938	-745.6038818359376	-394.1404724121095	299.6095886230469	-727.0958251953126	-347.7220153808594	294.1194763183594	-727.1506958007814	-327.7233276367188	243.4656982421876	-753.0000610351564	-390.1571044921876	132.2378997802735	-733.3149414062501	-360.8269042968751	144.7071075439453	-813.0185546875002	-450.6094055175782	114.1298141479492	-783.0186767578127	-245.3900909423829	59.09893035888673	-800.4884033203127	-239.0687103271485	58.09017944335939	-748.1538696289064	-284.6582641601563	47.98521804809571	-697.6314086914064	-4216.646484375001	853.152770996094	-3944.863525390626	
2	0.005	-225.2610321044922	1774.5146484375	-930.961608886719	-407.5937500000001	1718.171264648438	-1003.03564453125	-382.9153442382813	1714.975463867188	-851.8391113281252	-455.333709716797	1563.32568359375	-936.163269042969	-465.4846801757814	1243.095825195313	-924.0644531250002	-297.2558593750001	1503.39599609375	-951.2942504882815	-400.0461730957032	1551.676025390625	-1107.667236328125	-363.7585144042969	1393.35302734375	-1226.967529296875	-318.5564880371094	1378.0244140625	-1217.219360351563	-338.3134765625001	1337.15478515625	-1259.182739257813	-310.7060546875001	1293.372192382813	-1273.861206054688	-321.8503112792969	1236.959350585938	-1204.826538085938	-88.28597259521486	1310.361450195313	-1113.969848632813	-74.86914062500001	1247.170532226563	-1151.796997070313	-7.598754882812502	1319.258666992188	-1102.042724609375	-350.0221862792969	1551.052978515625	-775.0725097656252	-394.3870849609376	1346.1435546875	-669.5434570312501	-345.5028991699219	1333.964965820313	-675.4229736328126	-367.7159729003907	1282.50732421875	-655.1894531250001	-361.1829528808594	1238.160278320313	-648.0433959960939	-394.1249084472657	1210.121215820313	-727.6136474609376	-228.6082000732422	1011.057067871094	-700.8681030273439	-281.0296936035157	995.190856933594	-647.0949707031251	-183.2141723632813	948.1011962890627	-678.5469970703126	-299.6517944335938	1067.492553710938	-1058.245483398438	-277.9879760742188	1060.718994140625	-830.378601074219	-467.9463195800782	1126.79931640625	-925.0189208984377	-483.8361816406251	1099.644409179688	-950.0823974609377	-478.156219482422	1099.1748046875	-896.0955810546877	-408.6050109863282	854.2941894531252	-1118.011840820313	-367.6331176757813	779.9380493164065	-1119.47900390625	-319.6498107910157	786.7353515625002	-1114.57763671875	-390.602996826172	725.1539916992189	-1108.746948242188	-358.2754821777344	546.3261108398439	-1103.634765625	-344.2943115234376	523.2807006835939	-984.963073730469	-320.2811279296876	352.7698364257813	-1055.0751953125	-369.7791442871094	310.8713378906251	-1118.332641601563	-330.5971984863282	307.7389831542969	-1093.576416015625	-329.6239624023438	228.8220672607422	-1063.37109375	-385.7237854003907	134.7351226806641	-1106.651611328125	-347.0676269531251	139.2891693115235	-1025.847534179688	-450.5025024414064	117.9731903076172	-1064.747802734375	-243.1962890625001	66.4469451904297	-1039.660034179688	-237.1747283935547	60.71107482910158	-1085.135131835938	-285.3477478027344	44.48509597778321	-1137.426513671875	-373.4083251953126	795.7301025390627	-747.1599731445314	-330.3365173339844	745.8916015625001	-741.1011962890626	-297.6620178222657	751.1832275390626	-745.5866699218751	-348.8538513183594	664.0791015625001	-752.0150756835939	-336.9689636230469	539.3004760742189	-745.1193237304689	-316.7053527832032	514.5937500000001	-861.2192382812502	-308.4498596191407	370.0201721191407	-745.6582641601564	-394.0797424316407	299.6224670410157	-727.0878295898439	-347.6925964355469	294.1331176757813	-727.1533203125001	-327.4820251464844	243.2303161621094	-753.0452880859376	-390.0465393066407	132.3719940185547	-733.2520751953126	-360.8221740722657	144.6933898925782	-813.0130004882815	-450.6026000976564	114.1436462402344	-783.0222778320315	-245.3576354980469	59.10350036621095	-800.4909667968752	-239.0637207031251	58.07875061035158	-748.1597290039064	-284.6418762207032	47.96959304809571	-697.6404418945314	-4216.583007812501	853.2139892578127	-3944.729736328126	
3	0.01	-225.6194915771485	1774.535888671875	-931.5395507812502	-407.5362854003907	1718.201171875	-1003.376525878906	-382.8016357421876	1714.995727539063	-852.2348632812502	-455.7766113281251	1563.233032226563	-936.1899414062502	-465.4212646484376	1243.019409179688	-924.0606079101565	-297.5697937011719	1503.420288085938	-951.6062622070315	-400.8755798339845	1551.833740234375	-1107.4267578125	-361.9575805664063	1394.731811523438	-1226.888793945313	-315.9685668945313	1379.9228515625	-1217.236450195313	-335.2485961914063	1338.942504882813	-1259.0244140625	-306.6463928222657	1295.6640625	-1273.427734375	-317.1203918457032	1238.671264648438	-1204.555786132813	-88.07851409912111	1320.554077148438	-1109.522216796875	-72.21408081054689	1257.209716796875	-1146.245971679688	-7.452160358428957	1331.457275390625	-1095.684692382813	-350.0520935058594	1551.203002929688	-775.4874267578127	-393.3301086425782	1346.2685546875	-669.6196289062501	-344.8686523437501	1334.176147460938	-675.3675537109376	-366.5842895507813	1282.577026367188	-655.5591430664064	-359.4866027832032	1238.424194335938	-648.5609741210939	-392.7594299316407	1210.212890625	-727.5306396484376	-225.4470977783204	1012.446044921875	-701.7661132812501	-277.8732299804688	995.9659423828127	-647.5465698242189	-179.6541137695313	949.8197021484377	-679.3619384765626	-300.0311584472657	1067.491455078125	-1058.35546875	-277.5122985839844	1060.902465820313	-830.3311767578127	-468.1301269531251	1126.776611328125	-924.8179321289065	-483.9548645019532	1099.51318359375	-949.9060668945315	-478.2116088867189	1099.112548828125	-895.8623657226565	-408.9460754394532	854.2534790039065	-1117.94140625	-368.0049743652344	779.956970214844	-1119.47265625	-320.0145874023438	786.737731933594	-1114.644897460938	-390.9428710937501	725.1232910156251	-1108.826416015625	-358.4339599609376	546.3631591796876	-1103.6865234375	-344.2625427246094	523.2794799804689	-985.0154418945315	-320.3271789550782	352.8191833496094	-1055.129028320313	-369.9404602050782	310.9024658203126	-1118.357299804688	-330.6771545410157	307.7559814453126	-1093.634033203125	-329.6130371093751	228.3802185058594	-1063.713745117188	-385.7495422363282	134.7683868408203	-1106.646728515625	-347.0545043945313	139.3132476806641	-1025.883178710938	-450.5017700195314	117.9751968383789	-1064.756958007813	-243.3287353515626	66.3433303833008	-1039.742553710938	-237.1836700439454	60.71218109130861	-1085.105224609375	-285.6231994628907	43.92720794677735	-1136.760009765625	-373.2901611328126	795.7691650390627	-747.1376953125001	-330.0029296875001	746.0195312500001	-742.0086669921876	-297.5318908691407	751.1830444335939	-745.6531372070314	-348.6894226074219	664.0882568359376	-752.0236816406251	-336.7434692382813	539.2936401367189	-745.2145996093751	-316.6813049316407	514.5578613281251	-861.2398681640627	-308.4318847656251	370.0710449218751	-745.6928100585939	-394.0822753906251	299.6236267089844	-727.0949707031251	-347.6572875976563	294.1433105468751	-727.1677246093751	-327.7182922363282	243.4497070312501	-752.9982910156251	-390.2008361816407	132.2762603759766	-733.3340454101564	-360.8536376953126	144.6752624511719	-813.0145263671877	-450.6118774414064	114.1652450561524	-783.028015136719	-245.3708953857422	59.0713577270508	-800.5144042968752	-239.063705444336	58.07873916625978	-748.1597290039064	-284.6692199707032	48.00872802734376	-697.6363525390626	-4216.587890625001	853.156433105469	-3944.722412109376	
4	0.015	-224.9699859619141	1774.041259765625	-931.9954223632815	-407.5667114257814	1718.257934570313	-1003.769104003906	-382.7312927246094	1714.988647460938	-852.6303710937502	-456.2402343750001	1563.208740234375	-936.3345947265627	-465.6803588867189	1243.007202148438	-923.8718872070315	-297.8841857910157	1503.5595703125	-951.9309082031252	-401.6134338378907	1552.040405273438	-1107.215698242188	-360.1091918945313	1396.054809570313	-1226.683837890625	-313.9431457519532	1381.830078125	-1216.475708007813	-332.0170593261719	1340.814086914063	-1258.7158203125	-302.6567077636719	1298.094116210938	-1272.934204101563	-312.7041320800782	1240.59716796875	-1204.101440429688	-87.75186920166017	1330.19189453125	-1105.274658203125	-69.57950592041017	1267.244262695313	-1140.8408203125	-8.131055831909181	1343.888549804688	-1089.777099609375	-350.1119995117188	1551.362182617188	-775.8919067382815	-392.7691040039064	1346.330200195313	-669.9700927734376	-343.7028503417969	1334.542602539063	-675.6886596679689	-365.6263732910157	1282.923706054688	-655.5361328125001	-358.5736389160157	1238.585693359375	-648.0711059570314	-391.2902832031251	1209.845458984375	-727.6464843750001	-222.4941558837891	1013.509460449219	-702.3616333007814	-274.6285705566407	996.8846435546877	-648.3334960937501	-176.307373046875	951.504577636719	-680.1311035156251	-300.4345092773438	1067.45166015625	-1058.498779296875	-277.1493225097657	1061.0361328125	-830.2958984375002	-468.235809326172	1126.71826171875	-924.640075683594	-484.0379028320314	1099.394165039063	-949.671325683594	-478.2732238769532	1099.075805664063	-895.6314697265627	-409.2959594726564	854.2473144531252	-1117.847900390625	-368.3079833984376	779.9298095703127	-1119.495727539063	-320.3036804199219	786.7546386718752	-1114.74658203125	-391.1883850097657	725.0850830078126	-1108.739868164063	-358.6213073730469	546.3499145507814	-1103.702514648438	-344.2371215820313	523.2803955078126	-985.1074829101565	-320.3550415039063	352.8093566894532	-1055.242065429688	-370.0412597656251	310.8817138671876	-1118.376953125	-330.7256164550782	307.7311096191407	-1093.714111328125	-329.6225280761719	228.4129943847657	-1063.737548828125	-385.7294311523439	134.7518005371094	-1106.6689453125	-347.0433959960938	139.3450469970703	-1025.952026367188	-450.5017700195314	117.9751968383789	-1064.756958007813	-243.3366851806641	66.35549926757814	-1039.740966796875	-237.2344970703126	60.70090103149415	-1085.14599609375	-285.6112670898438	44.02131652832032	-1136.712280273438	-373.1119689941407	795.7722167968752	-747.1773071289064	-329.8778991699219	746.0268554687501	-742.0585327148439	-297.3158569335938	751.1534423828126	-745.7780761718751	-348.5801696777344	664.1270141601564	-752.0125122070314	-336.6389770507813	539.2919921875001	-745.2421875000001	-316.6336669921876	514.5598144531251	-861.2866210937502	-308.4004821777344	370.0632629394532	-745.6869506835939	-394.0779113769532	299.6325073242188	-727.0923461914064	-347.6572875976563	294.1433105468751	-727.1677246093751	-327.6728210449219	243.4924011230469	-753.0260009765626	-390.2047424316407	132.3020629882813	-733.3399047851564	-360.8635253906251	144.6776428222657	-813.048522949219	-450.6116638183595	114.140495300293	-783.053894042969	-245.3802337646485	59.07504653930665	-800.4916992187502	-239.063705444336	58.07873916625978	-748.1597290039064	-284.6459960937501	47.98692703247071	-697.6179809570314	-4216.587890625001	853.156433105469	-3944.722412109376	
